<?xml version="1.0" encoding="UTF-8"?>
<svg fill="none" viewBox="0 0 164 166" xmlns="http://www.w3.org/2000/svg">
<g style="mix-blend-mode:multiply">
<path d="m248.1 132.78c17.575-14.28 14.279-60.414 5.492-73.595-12.083-16.476-24.166-26.362-35.15-31.854s-40.642-9.8858-54.921-9.8858c-19.772 0-38.445 4.3937-53.823 8.7874-17.575 4.3937-50.528 16.476-65.905 34.051-17.575 19.772-2.1969 59.315 2.1968 65.905 8.7874 10.984 18.673 21.969 32.953 28.559 13.181 6.591 24.166 5.492 34.051 6.591 7.689 1.098 39.544 4.394 58.217 1.098 13.181-3.295 36.248-7.689 42.839-10.984 4.393-3.295 19.771-6.591 34.051-18.673z" fill="#F9FBFB" opacity=".047619"/>
<path d="m244.8 130.59c17.575-14.28 14.28-58.217 5.492-71.398-12.083-16.476-24.165-25.264-35.149-30.756-10.985-5.4922-38.445-9.8859-52.725-9.8859-18.673 0-38.445 4.3937-53.823 8.7875-16.476 4.3937-49.429 16.476-63.708 32.953-17.575 18.673-3.2953 58.216 2.1968 64.807 8.7875 10.984 17.575 21.968 31.854 27.46 13.181 5.492 24.165 5.492 32.953 5.492 7.689 1.099 37.346 5.493 57.118 1.099 14.279-3.295 35.149-7.689 41.74-10.984 5.492-2.197 19.772-5.492 34.051-17.575z" fill="#F4F6F8" opacity=".095238"/>
<path d="m242.61 129.49c17.575-14.279 14.28-56.019 5.493-69.2-10.985-16.476-24.166-25.264-35.15-30.756-9.886-5.4921-37.347-9.8858-50.528-9.8858-18.673 0-37.346 3.2953-52.724 7.689-16.476 4.3937-49.429 17.575-63.709 32.953-16.476 18.673-3.2953 56.019 2.1968 62.61 7.689 10.984 17.575 20.87 30.756 27.461 12.083 5.492 23.067 4.393 31.854 5.492 6.591 1.098 36.248 5.492 56.02 2.197 14.28-3.296 34.051-7.689 40.642-10.985 5.492-3.295 20.87-6.59 35.149-17.575z" fill="#EEF2F4" opacity=".1429"/>
<path d="m239.31 128.39c16.476-13.181 14.279-53.823 5.492-67.004-10.984-16.476-23.067-24.165-34.051-29.658-9.886-5.4922-35.15-9.8859-49.429-9.8859-17.575-2.1968-36.248 2.1969-51.626 6.5906-16.477 4.3937-49.43 16.476-62.611 31.854-16.476 17.575-4.3937 53.822 2.1969 61.511 7.689 9.886 16.476 20.871 29.658 26.363 12.083 5.492 23.067 4.393 31.854 5.492 6.591 1.098 35.15 6.59 54.921 2.197 14.28-2.197 34.052-8.788 39.544-10.985 5.492-3.295 19.771-5.492 34.051-16.476z" fill="#E9EDF1" opacity=".1905"/>
<path d="m236.02 126.19c16.476-13.181 14.279-52.724 6.59-65.905-10.984-16.476-23.067-24.165-34.051-29.658-9.886-4.3937-34.051-9.8858-47.232-9.8858-17.575 0-36.248 4.3937-51.626 7.689-16.476 5.4921-48.331 17.575-61.512 31.854-15.378 16.476-4.3938 52.724 2.1968 59.315 7.689 9.885 15.378 19.771 29.658 26.362 12.083 5.492 23.067 3.295 30.756 4.394 6.591 1.098 34.051 6.59 53.823 3.295 14.28-2.197 32.953-8.788 38.445-12.083 5.492-2.197 19.772-4.394 32.953-15.378z" fill="#E3E9ED" opacity=".2381"/>
<path d="m233.82 125.1c16.477-12.083 14.28-50.528 6.591-63.709-10.984-16.476-23.067-23.067-32.953-28.559-9.886-4.3937-32.953-9.8858-46.134-9.8858-17.575-1.0985-36.248 2.1968-51.626 6.5905-16.476 4.3937-47.232 16.476-60.413 30.756-15.378 16.476-4.3937 50.527 2.1968 58.216 7.689 8.788 14.28 19.772 28.559 25.264 12.083 5.492 21.968 3.295 30.756 4.394 6.59 1.098 32.952 6.59 51.626 3.295 14.279-2.197 31.854-8.787 37.346-12.083 5.492-2.197 19.772-4.393 34.051-14.279z" fill="#DEE5EA" opacity=".2857"/>
<path d="m230.52 122.9c16.476-12.083 14.279-48.331 6.59-61.512-10.984-16.476-23.067-23.067-32.952-27.461-9.886-4.3937-30.756-9.8858-43.937-9.8858-16.477-2.1969-35.15 2.1969-50.528 6.5906-16.476 4.3937-47.232 16.476-59.315 29.657-14.28 15.378-5.4922 48.33 2.1968 57.118 6.5906 8.787 14.28 18.673 27.461 24.165 12.083 4.394 21.968 3.295 29.658 4.394 6.591 1.098 31.854 7.689 50.528 4.394 14.279-2.197 31.854-9.886 36.248-12.083 6.59-3.295 20.87-5.492 34.051-15.378z" fill="#D8E0E6" opacity=".3333"/>
<path d="m227.23 121.8c16.476-10.984 14.279-46.133 6.59-59.314-9.886-16.476-21.968-21.968-32.953-27.461-8.787-4.3937-29.657-8.7874-41.74-9.8859-15.378-2.1968-34.051 1.0985-49.429 5.4922s-46.134 17.575-58.216 29.658c-13.181 14.28-5.4922 46.134 1.0984 54.921 6.5905 8.787 13.181 18.673 26.362 24.165 12.083 4.394 21.969 2.197 29.658 3.296 6.59 1.098 30.755 7.689 49.429 4.393 14.279-2.197 30.756-9.886 36.248-12.082 6.59-3.296 19.771-3.296 32.953-13.182z" fill="#D3DCE3" opacity=".381"/>
<path d="m225.03 120.7c15.378-10.984 14.28-43.937 6.591-58.216-9.886-16.476-21.969-21.968-31.854-26.362-8.788-4.3937-27.461-8.7874-40.642-9.8859-15.378-2.1968-34.051 1.0985-48.331 5.4922-16.476 4.3937-47.232 16.476-58.216 28.559-13.181 14.28-5.4921 45.035 1.0985 53.822 6.5905 7.689 12.083 18.674 26.362 23.067 12.083 4.394 21.969 2.197 28.559 3.296 6.591 1.098 28.559 8.787 48.331 5.492 14.279-2.197 29.657-9.886 35.15-13.181 5.492-3.296 19.771-3.296 32.952-12.083z" fill="#CDD8DF" opacity=".4286"/>
<path d="m221.74 118.5c15.378-10.984 14.279-41.74 6.59-56.02-9.886-16.476-21.968-21.968-31.854-26.362-8.788-4.3937-26.362-8.7874-38.445-9.8858-14.28-1.0985-32.953 1.0984-48.331 5.4921-15.378 4.3937-45.035 17.575-56.02 28.559-12.083 13.181-6.5906 42.838 1.0984 51.626 6.5906 7.689 10.984 17.574 25.264 23.067 12.083 4.393 20.87 2.196 28.559 3.295 6.59 1.098 27.46 8.787 47.232 5.492 14.28-2.197 28.559-10.984 34.051-13.181 5.492-3.295 18.673-3.295 31.855-12.083z" fill="#C8D3DC" opacity=".4762"/>
<path d="m218.44 117.41c15.378-9.886 14.28-39.544 6.591-53.823-9.886-17.575-21.969-20.87-30.756-25.264-8.788-4.3938-24.166-8.7875-36.248-9.8859-14.28-1.0984-32.953 1.0984-47.233 5.4921-16.476 4.3937-45.035 17.575-54.921 27.461-12.083 10.984-7.689 39.543 0 49.429 5.4922 7.689 9.8859 17.575 24.165 21.969 10.984 4.393 20.87 1.098 27.46 2.197 6.591 1.098 26.362 9.885 46.134 6.59 14.28-2.197 28.559-10.984 32.953-13.181 5.492-3.295 18.673-2.197 31.854-10.984z" fill="#C2CFD8" opacity=".5238"/>
<path d="m216.24 115.21c15.378-9.886 14.28-38.445 6.591-52.724-9.886-17.575-20.87-20.87-30.756-25.264-7.689-3.2953-23.067-8.7874-35.15-9.8858-13.181-1.0984-31.854 2.1968-46.133 5.4921-16.477 5.4922-45.036 17.575-54.922 27.461-10.984 10.984-6.5905 39.543 1.0984 49.429 5.4922 6.59 9.8859 16.476 23.067 21.968 10.984 3.296 20.87 1.099 26.362 2.197 6.59 1.099 25.264 9.886 45.035 6.591 14.28-2.197 27.461-10.985 31.855-13.181 6.59-4.394 19.771-3.296 32.952-12.083z" fill="#BDCAD5" opacity=".5714"/>
<path d="m212.95 114.11c15.378-8.787 15.378-36.248 7.689-50.527-8.787-17.575-20.87-19.772-30.756-24.165-7.689-3.2952-20.87-8.7874-32.953-9.8858-13.181-2.1968-31.854 0-46.133 4.3937-15.378 4.3937-45.036 17.575-53.823 26.362-9.8859 10.984-7.689 37.346 1.0984 47.232 5.4921 6.59 8.7874 16.476 23.067 20.87 10.984 3.295 19.772 0 26.362 2.197 6.591 1.098 24.166 10.984 43.937 7.689 14.28-2.197 26.363-10.984 30.756-14.28 5.492-3.295 17.575-2.197 30.756-9.886z" fill="#B7C6D1" opacity=".619"/>
<path d="m210.75 113.01c14.28-8.787 14.28-34.051 6.591-48.331-8.788-17.575-20.87-19.772-29.658-24.165-7.689-3.2953-19.771-8.7874-31.854-9.8858-13.181-2.1969-30.756 0-45.036 4.3937-15.378 4.3937-43.937 16.476-51.626 25.264-9.8859 9.8858-8.7874 35.15 0 46.134 5.4921 6.59 7.6889 15.377 21.968 19.771 10.984 3.295 19.772 0 25.264 1.099 5.492 1.098 23.067 10.984 41.74 7.689 15.378-2.197 26.362-12.083 29.657-14.28 6.591-2.197 19.772 0 32.953-7.689z" fill="#B2C2CE" opacity=".6667"/>
<path d="m207.46 110.82c14.28-7.689 14.28-31.854 7.689-46.134-8.787-17.575-19.771-18.673-29.657-23.067-7.689-3.2953-17.575-7.689-29.657-9.8858-12.083-2.1969-30.756 0-43.938 4.3937-15.378 4.3937-43.936 17.575-51.626 25.264-8.7874 8.7874-8.7874 34.051 1.0984 43.937 4.3937 5.492 5.4921 14.28 19.772 18.673 10.984 3.296 19.771 0 25.263 1.099 5.492 1.098 21.969 12.082 40.642 8.787 15.378-2.197 25.264-12.083 28.559-14.279 6.591-3.296 18.673-1.099 31.854-8.788z" fill="#ACBDCA" opacity=".7143"/>
<path d="m204.16 109.72c14.279-7.689 14.279-29.658 7.688-45.036-8.787-17.575-19.771-18.673-29.657-21.969-6.591-3.2952-16.476-8.7874-27.461-10.984-12.082-2.1969-29.657 0-43.937 3.2953-15.378 5.4921-42.838 17.575-49.429 25.264-8.7874 7.689-8.7874 31.854 0 42.838 4.3937 5.492 5.4921 15.378 19.772 18.673 10.984 3.296 19.772-1.098 24.165 1.099 5.492 2.197 20.87 12.083 39.544 8.787 15.377-2.197 24.165-12.082 28.559-14.279 5.492-3.296 18.673-1.099 30.756-7.689z" fill="#A7B9C7" opacity=".7619"/>
<path d="m201.96 107.52c13.181-7.6891 14.279-27.461 7.689-42.839-8.788-17.575-19.772-17.575-28.559-21.968-6.591-3.2953-14.28-7.689-26.362-9.8858-10.985-2.1969-29.658-1.0984-42.839 3.2953-15.378 4.3937-42.839 17.575-49.429 24.165-7.689 7.689-8.7874 29.658 0 41.74 4.3937 5.492 5.4921 14.279 18.673 18.673 10.984 3.295 18.673-1.098 24.165 0 5.493 1.098 19.772 12.083 38.445 8.787 15.378-2.196 24.166-13.181 27.461-14.279 5.492-3.295 17.575-1.099 30.756-7.689z" fill="#A1B5C3" opacity=".8095"/>
<path d="m198.67 106.42c13.181-6.591 14.279-25.264 7.689-40.642-7.689-17.575-19.772-17.575-28.56-20.87-6.59-3.2953-13.181-7.689-24.165-9.8858-10.984-2.1969-28.559-1.0985-41.74 3.2952-15.378 3.2953-42.839 15.378-48.331 21.968-7.6889 6.5906-9.8858 27.461 0 39.543 4.3937 4.394 4.3937 14.28 18.673 17.575 9.8858 2.197 18.674-1.099 23.066 0 5.493 2.197 17.575 13.181 37.347 9.886 15.378-2.197 23.067-13.181 26.362-15.378 5.492-2.197 16.476 1.098 29.658-5.492z" fill="#9CB0C0" opacity=".8571"/>
<path d="m195.37 104.23c13.181-6.5909 14.28-24.166 7.689-38.445-7.689-17.575-18.673-16.476-27.46-20.87-6.591-3.2953-12.083-7.689-23.067-9.8858-9.886-2.1969-28.559-1.0985-41.741 2.1968-15.378 4.3937-41.74 17.575-47.232 21.968-6.5906 6.5906-9.8859 26.362 0 38.445 3.2952 4.3939 3.2952 13.181 17.575 17.575 9.8858 2.197 18.673-2.197 23.067 0 5.492 2.197 16.476 13.181 36.248 10.984 15.378-2.197 21.968-13.181 25.264-15.378 5.492-3.295 17.575 0 29.657-6.59z" fill="#96ACBC" opacity=".9048"/>
<path d="m193.18 103.13c13.182-5.4919 14.28-21.968 7.689-37.346-7.689-17.575-18.673-16.476-27.46-19.772-6.591-3.2953-9.886-7.689-20.87-9.8858-9.886-2.1969-27.461-2.1969-40.642 2.1968-15.378 4.3937-41.74 17.575-46.134 21.969-5.4921 5.4921-10.984 24.165 0 36.248 3.2953 4.3933 2.1969 13.181 16.476 16.476 9.8858 2.197 17.575-2.197 21.968-1.098 5.492 2.197 15.378 14.279 35.15 10.984 15.378-2.197 20.87-14.28 24.165-15.378 5.492-2.197 16.476 1.098 29.657-4.394z" fill="#91A7B9" opacity=".9524"/>
<path d="m189.88 102.03c12.083-5.4923 14.279-19.772 7.689-35.15-7.689-17.575-18.673-15.378-27.461-19.772-6.59-2.1968-8.787-6.5905-18.673-9.8858-8.787-2.1968-27.461-2.1968-39.543 2.1969-15.378 4.3937-40.642 16.476-45.036 20.87-5.4921 4.3937-10.984 21.969 0 35.15 3.2953 3.2952 1.0985 12.083 15.378 15.378 9.8858 2.197 17.575-2.197 20.87-1.098 5.492 2.197 14.28 14.279 32.953 12.082 15.378-2.196 20.87-14.279 23.067-15.377 6.591-3.296 18.673 1.098 30.756-4.394z" fill="#8BA3B5"/>
</g>
<path d="m173.41 42.714h-2.197c-3.296-9.8859-13.181-17.575-24.166-17.575-3.295 0-6.59 1.0984-9.885 2.1968-3.296-9.8858-13.182-16.476-24.166-16.476s-19.772 6.5906-23.067 16.476h-4.3938c-12.083 0-20.87 8.7874-21.968 19.772h-5.4921c-14.28 0-25.264 10.984-25.264 25.264 0 14.28 10.984 25.264 25.264 25.264h1.0984c2.1969 9.8859 12.083 17.575 23.067 17.575 8.7874 0 15.378-4.394 19.772-10.984 5.492 9.886 15.378 15.378 27.461 15.378 13.181 0 24.165-7.689 29.657-18.674 4.394 2.197 9.886 4.394 15.378 4.394 16.476 0 30.756-13.181 30.756-30.756s-15.378-31.854-31.854-31.854z" fill="#fff"/>
<path d="m174.5 43.812h-2.197c-3.295-9.8859-13.181-17.575-24.165-17.575-3.296 0-6.591 1.0985-9.886 2.1969-3.296-9.8858-13.181-16.476-24.166-16.476-10.984 0-19.771 6.5906-23.067 16.476h-4.3937c-12.083 0-20.87 8.7874-21.968 19.772h-5.4921c-13.181-1.0985-25.264 9.8858-25.264 24.165 0 14.28 10.984 25.264 25.264 25.264h1.0984c2.1968 9.8859 12.083 17.575 23.067 17.575 8.7874 0 15.378-4.394 19.772-10.984 5.492 9.885 15.378 15.378 27.461 15.378 13.181 0 24.165-7.689 29.657-18.674 4.394 2.197 9.886 4.394 15.378 4.394 16.477 0 30.756-13.181 30.756-30.756-2.197-16.476-15.378-30.756-31.854-30.756z" fill="#E9F2F5"/>
<g style="mix-blend-mode:multiply">
<path d="m162.42 87.749c9.885-14.28 5.492-41.74-1.099-51.626-8.787-13.181-24.165-14.28-31.854-18.673-8.788-4.3937-24.166-15.378-35.15-15.378-15.378 0-23.067 5.4921-35.15 8.7874-13.181 3.2953-35.15 23.067-47.232 36.248-14.28 15.378-10.984 38.445-7.689 43.937 7.689 8.7874 15.378 16.476 26.362 21.968 9.8858 4.394 18.673 4.394 26.362 4.394 5.4921 0 12.083 3.295 27.461 0 10.984-2.197 15.378-3.296 20.87-4.394 9.886-3.295 45.036-7.689 57.119-25.264z" fill="#F9FBFB" opacity=".047619"/>
<path d="m160.22 86.651c9.886-14.28 5.492-40.642-1.098-50.528-8.788-13.181-23.067-14.28-31.855-18.673-7.689-4.3937-23.067-15.378-34.051-16.476-14.28 0-23.067 5.4921-35.15 7.689-12.083 5.4921-34.051 26.362-45.036 38.445-13.181 15.378-12.083 37.346-7.6889 42.839 6.5905 7.6889 14.28 16.477 25.264 20.87 9.8859 4.394 18.673 3.296 25.264 4.394 5.4922 0 12.083 3.295 27.461 1.098 10.984-2.196 15.378-3.295 20.87-4.393 10.985-4.394 43.937-7.689 56.02-25.264z" fill="#F4F6F8" opacity=".095238"/>
<path d="m159.13 86.651c9.886-13.181 5.492-39.543-1.098-49.429-8.788-13.181-23.067-14.28-31.855-17.575-7.689-4.3937-23.067-15.378-32.952-16.476-14.28 0-21.968 5.4921-34.051 8.7874-13.181 3.2952-34.051 23.067-45.036 35.15-13.181 14.28-12.083 36.248-7.6889 41.74 5.4921 7.689 13.181 16.476 24.165 20.87 9.8859 4.394 18.673 3.295 25.264 3.295 5.4921 0 12.083 4.394 27.461 1.099 10.984-2.197 15.378-3.296 20.87-4.394 9.886-3.295 42.838-6.591 54.921-23.067z" fill="#EEF2F4" opacity=".1429"/>
<path d="m156.93 85.552c9.885-13.181 6.59-38.445 0-47.232-8.788-13.181-23.067-13.181-30.756-17.575-7.689-3.2952-21.969-15.378-31.855-16.476-15.378 0-24.165 4.3937-35.15 7.689-13.181 3.2953-34.051 23.067-43.937 35.15-13.181 13.181-13.181 35.15-8.7874 40.642 6.5906 7.689 13.181 15.378 24.165 19.772 10.984 4.394 18.673 2.197 25.264 3.295 5.4922 1.099 12.083 4.394 27.461 1.099 10.984-2.197 16.476-3.296 20.87-4.394 9.886-3.295 40.642-5.492 52.725-21.969z" fill="#E9EDF1" opacity=".1905"/>
<path d="m154.73 85.552c9.886-12.083 6.591-37.346 0-46.134-8.787-13.181-23.067-13.181-30.756-17.575-7.689-3.2953-20.87-16.476-31.854-16.476-13.181-1.0984-21.968 3.2953-34.051 6.5905-13.181 3.2953-32.953 23.067-42.839 34.051-12.083 13.181-13.181 35.15-7.6889 40.642 5.4921 7.689 13.181 15.378 24.165 18.673 10.984 3.295 18.673 2.197 24.165 3.295 5.4921 1.099 12.083 4.394 27.461 1.099 10.984-2.197 16.476-4.394 20.87-4.394 8.787-2.197 38.445-5.492 50.527-19.772z" fill="#E3E9ED" opacity=".2381"/>
<path d="m152.54 84.454c9.886-12.083 6.591-36.248 0-45.036-8.787-13.181-21.968-13.181-30.756-16.476-7.689-3.2953-20.87-16.476-30.756-16.476-13.181-1.0984-21.968 3.2953-34.051 6.5905-12.083 3.2953-30.756 23.067-40.642 32.953-10.984 12.083-13.181 32.953-7.689 38.445 4.3937 7.689 12.083 15.378 23.067 19.772 10.984 3.295 17.575 1.098 24.165 2.196 4.3937 1.099 12.083 4.394 26.362 1.099 10.984-2.197 16.476-4.394 20.87-4.394 9.886-2.197 38.445-4.3935 49.429-18.673z" fill="#DEE5EA" opacity=".2857"/>
<path d="m151.44 84.454c9.885-12.083 6.59-35.15 1.098-43.937-8.787-13.181-21.968-13.181-29.657-16.476s-19.772-16.476-29.658-16.476c-12.083-1.0984-21.968 3.2953-34.051 6.5906-14.28 3.2953-32.953 21.968-42.839 31.854-10.984 12.083-13.181 31.854-7.689 38.445 5.4921 6.5906 12.083 14.28 23.067 17.575 10.984 3.295 17.575 1.098 24.165 2.197 5.4921 1.098 12.083 4.393 27.461 2.197 10.984-2.197 16.476-4.394 20.87-5.493 7.689-1.098 35.15-3.2949 47.233-16.476z" fill="#D8E0E6" opacity=".3333"/>
<path d="m149.24 84.454c9.886-10.984 7.689-34.051 1.098-42.839-8.787-13.181-21.968-13.181-29.657-16.476-6.591-3.2952-19.772-16.476-29.658-16.476-12.083-1.0984-21.968 3.2952-34.051 6.5906-12.083 2.1968-30.756 20.87-39.543 30.756-10.984 10.984-14.28 30.756-8.7874 37.346 5.4921 6.5905 12.083 14.28 21.969 17.574 10.984 3.296 17.575 1.099 23.067 1.099 6.5906 1.098 13.181 4.394 28.559 2.197 10.984-2.197 16.476-4.394 20.87-5.4925 8.787-1.0984 34.051-2.1968 46.134-14.28z" fill="#D3DCE3" opacity=".381"/>
<path d="m147.04 83.356c9.886-10.984 7.689-32.953 1.098-41.74-8.787-13.181-21.968-12.083-29.657-16.476-6.591-3.2953-18.674-16.476-28.559-16.476-12.083-1.0984-21.968 2.1968-32.953 5.4921-12.083 3.2953-30.756 23.067-38.445 31.854-9.8858 10.984-14.28 29.658-8.7874 36.248 5.4922 6.5905 10.984 13.181 21.968 16.476 10.984 3.2954 17.575 0 23.067 1.0984 5.4921 1.098 12.083 5.492 27.461 2.197 10.984-2.197 16.476-4.3939 20.87-5.4923 7.689 0 32.952-1.0984 43.937-13.181z" fill="#CDD8DF" opacity=".4286"/>
<path d="m144.85 83.356c9.886-9.8858 7.689-31.854 2.197-40.642-8.788-13.181-21.969-12.083-29.658-15.378-6.59-4.3937-17.574-16.476-27.46-17.575-10.984-1.0984-21.968 2.1968-32.953 5.4921-12.083 3.2953-29.658 21.968-38.445 30.756-8.7874 9.8859-14.28 27.461-8.7874 35.15 4.3937 5.4922 10.984 13.181 21.969 15.378 10.984 2.1969 17.575 0 23.067 0 4.3937 2.1969 12.083 6.5903 27.461 3.2953 10.984-2.1969 16.476-4.3937 20.87-5.4921 7.689 0 30.756 0 41.74-10.984z" fill="#C8D3DC" opacity=".4762"/>
<path d="m142.65 82.257c9.886-9.8858 7.689-30.756 2.197-39.543-8.787-13.181-20.87-12.083-28.559-15.378-6.591-3.2953-16.476-15.378-26.362-16.476-10.984-1.0984-21.968 2.1969-32.953 5.4922-12.083 2.1968-29.658 20.87-37.346 28.559-8.7874 9.8859-15.378 27.461-8.7874 35.15 4.3937 5.4922 9.8858 13.181 20.87 15.378 10.984 2.1968 17.575-1.0984 21.968 0 5.4921 1.0984 13.181 5.4917 27.461 3.2953 10.984-2.1969 16.476-4.3937 20.871-5.4922 7.688 0 29.657 0 40.641-10.984z" fill="#C2CFD8" opacity=".5238"/>
<path d="m141.55 82.257c9.885-8.7874 8.787-29.657 2.196-38.445-8.787-13.181-20.87-12.083-28.559-15.378-6.59-3.2953-16.476-16.476-26.362-17.575-10.984-1.0984-21.968 1.0984-32.953 4.3937-10.984 4.3937-28.559 21.968-35.15 29.658-8.7874 8.7874-15.378 26.362-8.7874 34.051 4.3937 5.4921 9.8858 12.083 20.87 14.28 10.984 2.1969 17.575-1.0984 21.968 0s12.083 5.4921 26.362 3.2953c10.984-2.1969 17.575-5.4921 20.87-5.4921 7.689 0 28.559 1.0984 39.544-8.7875z" fill="#BDCAD5" opacity=".5714"/>
<path d="m139.35 81.159c9.886-8.7874 8.788-28.559 3.296-37.346-7.689-13.181-20.871-10.984-28.559-15.378-6.591-2.1968-15.378-15.378-25.264-16.476-9.8858-1.0984-21.968 1.0985-32.953 4.3937-12.083 3.2953-27.461 21.969-35.15 28.559-7.6889 8.7874-15.378 25.264-8.7874 32.953 4.3937 5.4921 9.8859 12.083 20.87 14.28 10.984 2.1969 17.575-2.1968 21.968-1.0984s12.083 5.4921 26.362 3.2953c10.984-2.1969 17.575-5.4922 20.87-5.4922 6.59 1.0985 26.362 2.1969 37.346-7.6889z" fill="#B7C6D1" opacity=".619"/>
<path d="m137.16 81.159c9.886-7.689 8.788-27.461 3.295-35.15-7.689-13.181-20.87-10.984-27.46-14.28-6.591-4.3937-15.378-17.575-24.166-18.673-9.8859-1.0985-21.969 1.0984-32.953 4.3937-12.083 3.2952-27.461 20.87-34.051 27.461-7.689 7.689-16.476 23.067-8.7874 31.854 4.3937 4.3938 8.7874 12.083 19.772 13.181 10.984 2.1968 16.476-2.1969 20.87-1.0985 4.3937 1.0985 12.083 6.5906 27.461 3.2953 10.984-2.1968 17.575-5.4921 20.87-5.4921 6.59 1.0984 24.165 3.2953 35.149-5.4921z" fill="#B2C2CE" opacity=".6667"/>
<path d="m134.96 80.06c9.886-7.6889 8.788-26.362 4.394-34.051-7.689-13.181-19.772-10.984-27.461-14.28-6.59-3.2953-15.378-16.476-24.165-17.575-8.7874-2.1968-20.87 0-31.854 3.2953-12.083 3.2953-27.461 20.87-32.953 27.461-7.689 6.5906-16.476 21.968-9.8859 30.756 3.2953 4.3937 8.7874 10.984 19.772 13.181 10.984 1.0985 16.476-3.2952 20.87-2.1968s12.083 6.5905 27.461 4.3937c10.984-2.1969 17.575-5.4921 20.87-5.4921 5.492 1.0984 23.067 3.2952 32.952-5.4922z" fill="#ACBDCA" opacity=".7143"/>
<path d="m132.76 80.06c9.886-6.5905 8.787-25.264 4.393-32.953-7.689-13.181-19.771-10.984-27.46-14.28-5.492-3.2952-13.181-16.476-21.969-18.673-8.7874-2.1968-21.968 0-31.854 3.2953-12.083 4.3937-27.461 20.87-32.953 27.461-5.4922 5.4921-16.476 20.87-8.7874 29.658 3.2952 4.3937 7.6889 10.984 18.673 12.083s16.476-3.2953 20.87-2.1969c4.3937 1.0985 12.083 6.5906 27.461 4.3937 12.083-2.1968 17.575-5.4921 20.87-5.4921 5.492 1.0984 20.87 3.2953 30.756-3.2953z" fill="#A7B9C7" opacity=".7619"/>
<path d="m131.66 78.962c9.886-6.5906 9.886-24.165 4.394-31.854-7.689-13.181-19.772-10.984-26.362-13.181-5.492-2.1968-13.181-16.476-21.969-17.575-9.8858-2.1968-21.968-1.0984-31.854 2.1969-12.083 3.2953-26.362 20.87-31.854 25.264-5.4921 6.5905-16.476 20.87-9.8858 29.658 3.2952 4.3937 7.6889 9.8858 18.673 10.984s16.476-3.2953 19.772-2.1968c5.4921 1.0984 13.181 6.5905 27.461 4.3937 12.083-2.1969 17.575-5.4922 20.87-5.4922 5.493 1.0985 19.772 4.3937 30.756-2.1968z" fill="#A1B5C3" opacity=".8095"/>
<path d="m129.47 78.962c9.885-5.4921 9.885-23.067 5.492-30.756-7.689-13.181-19.772-9.8858-26.363-13.181-6.59-3.2953-13.181-16.476-21.968-18.673-8.7874-2.1968-20.87 0-31.854 2.1969-10.984 4.3937-25.264 20.87-29.658 25.264-5.4921 5.4921-17.575 18.673-9.8858 28.559 3.2953 3.2952 6.5905 9.8858 18.673 10.984 10.984 1.0984 16.476-4.3937 19.772-3.2953 4.3937 1.0985 12.083 7.689 27.461 4.3937 12.083-2.1968 17.575-6.5905 20.87-5.4921 4.394 2.1969 17.575 5.4921 27.461 0z" fill="#9CB0C0" opacity=".8571"/>
<path d="m127.27 77.863c9.886-5.4921 9.886-21.968 5.492-29.657-7.689-13.181-19.771-9.8859-26.362-13.181-5.492-2.1969-12.082-15.378-19.772-17.575-8.7874-2.1968-21.968-1.0984-31.854 2.1969-10.984 3.2953-25.264 19.772-28.559 24.165-5.4922 4.3937-18.673 17.575-10.984 27.461 3.2953 3.2953 6.5906 8.7874 18.673 9.8858 10.984 1.0984 15.378-4.3937 18.673-3.2953 4.3937 1.0985 12.083 7.689 27.461 5.4922 12.083-2.1969 17.575-6.5906 20.87-5.4922 4.394 1.0985 16.476 5.4922 26.362 0z" fill="#96ACBC" opacity=".9048"/>
<path d="m125.08 77.864c9.885-4.3937 9.885-20.87 5.492-28.559-7.689-13.181-18.674-9.8858-26.363-13.181-3.295-2.1969-9.8853-15.378-18.673-17.575-7.689-2.1969-20.87-1.0984-30.756 1.0984-10.984 3.2953-24.165 19.772-28.559 23.067-4.3937 5.4922-17.575 17.575-9.8858 27.461 2.1968 3.2953 6.5905 8.7874 17.575 8.7874 12.083 0 16.476-5.4921 18.673-4.3937 4.3937 2.1968 12.083 7.689 27.461 5.4921 12.083-1.0984 17.575-5.4921 19.772-4.3937 5.4922 2.1969 15.378 6.5906 25.264 2.1969z" fill="#91A7B9" opacity=".9524"/>
<path d="m122.88 76.765c9.885-4.3937 10.984-19.772 6.59-27.461-7.689-12.083-18.673-8.7874-25.264-12.083-4.3933-2.1968-10.984-15.378-18.673-18.673-7.689-1.0984-20.87-1.0984-30.756 2.1968-10.984 3.2953-24.165 19.772-27.461 23.067-4.3937 3.2952-18.673 15.378-10.984 25.264 3.2952 2.1968 6.5905 7.6889 17.575 8.7874 12.083 0 15.378-5.4922 18.673-4.3937 4.3937 2.1968 12.083 7.6889 27.461 5.4921 12.083-2.1969 17.575-6.5906 19.772-5.4921 4.3933 2.1968 14.279 7.6889 23.067 3.2952z" fill="#8BA3B5"/>
</g>
<path d="m114.09 33.926c-2.197 0-5.492 0-7.689 1.0984-3.295-16.476-16.476-28.559-34.051-29.658-16.476-1.0984-30.756 8.7874-36.248 24.165-13.181-1.0985-25.264 9.8858-26.362 24.165 0 13.181 9.8858 25.264 24.165 26.362 7.689 0 14.28-2.1968 18.673-6.5905 4.3937 2.1968 10.984 4.3937 16.476 4.3937 10.984 1.0984 20.87-3.2953 27.461-10.984 3.2953 5.4922 8.7877 8.7874 15.378 8.7874 12.083 1.0985 21.969-8.7874 21.969-19.772 1.098-12.083-7.689-21.968-19.772-21.968z" fill="#fff"/>
</svg>
